<svg width="36" height="36" viewBox="0 0 36 36" fill="none" xmlns="http://www.w3.org/2000/svg">
<g clip-path="url(#clip0_1168_348)">
<path d="M18 36C22.7739 36 27.3523 34.1036 30.7279 30.7279C34.1036 27.3523 36 22.7739 36 18C36 13.2261 34.1036 8.64773 30.7279 5.27208C27.3523 1.89642 22.7739 0 18 0C13.2261 0 8.64773 1.89642 5.27208 5.27208C1.89642 8.64773 0 13.2261 0 18C0 22.7739 1.89642 27.3523 5.27208 30.7279C8.64773 34.1036 13.2261 36 18 36ZM11.9391 11.6227C12.4945 10.0547 13.9852 9 15.6516 9H19.7508C22.2047 9 24.1875 10.9898 24.1875 13.4367C24.1875 15.0258 23.3367 16.4953 21.9586 17.2898L19.6875 18.5906C19.6734 19.5047 18.9211 20.25 18 20.25C17.0648 20.25 16.3125 19.4977 16.3125 18.5625V17.6133C16.3125 17.0086 16.6359 16.4531 17.1633 16.1508L20.2781 14.3648C20.6086 14.175 20.8125 13.8234 20.8125 13.4437C20.8125 12.8531 20.3344 12.382 19.7508 12.382H15.6516C15.4125 12.382 15.2016 12.5297 15.1242 12.7547L15.0961 12.8391C14.7867 13.718 13.8164 14.175 12.9445 13.8656C12.0727 13.5562 11.6086 12.5859 11.918 11.7141L11.9461 11.6297L11.9391 11.6227ZM15.75 24.75C15.75 24.1533 15.9871 23.581 16.409 23.159C16.831 22.7371 17.4033 22.5 18 22.5C18.5967 22.5 19.169 22.7371 19.591 23.159C20.0129 23.581 20.25 24.1533 20.25 24.75C20.25 25.3467 20.0129 25.919 19.591 26.341C19.169 26.7629 18.5967 27 18 27C17.4033 27 16.831 26.7629 16.409 26.341C15.9871 25.919 15.75 25.3467 15.75 24.75Z" fill="black"/>
</g>
<defs>
<clipPath id="clip0_1168_348">
<rect width="36" height="36" fill="white"/>
</clipPath>
</defs>
</svg>
